<svg width="39" height="40" viewBox="0 0 39 40" fill="none" xmlns="http://www.w3.org/2000/svg">
<path d="M4 31C5.07317 14.9079 7.9439 -12.1406 10.8415 8.40252C14.4634 34.0815 16.4756 33.5679 19.2927 15.079C22.1098 -3.40981 24.5244 9.42967 26.1341 18.6741C27.7439 27.9185 30.561 31.5136 32.5732 17.1334C34.5854 2.75314 37 17.6469 37 21.7556" stroke="#8F63F6" stroke-width="2" stroke-linecap="round"/>
<g filter="url(#filter0_d_207_112)">
<path opacity="0.65" d="M5 1C5.94309 17.0921 8.46585 44.1406 11.0122 23.5975C14.1951 -2.08148 15.9634 -1.56788 18.439 16.921C20.9146 35.4098 23.0366 22.5703 24.4512 13.3259C25.8659 4.08149 28.3415 0.486435 30.1098 14.8666C31.878 29.2469 34 14.3531 34 10.2444" stroke="#8F63F6" stroke-opacity="0.65" stroke-width="2" stroke-linecap="round"/>
</g>
<defs>
<filter id="filter0_d_207_112" x="0" y="0" width="39" height="40.0013" filterUnits="userSpaceOnUse" color-interpolation-filters="sRGB">
<feFlood flood-opacity="0" result="BackgroundImageFix"/>
<feColorMatrix in="SourceAlpha" type="matrix" values="0 0 0 0 0 0 0 0 0 0 0 0 0 0 0 0 0 0 127 0" result="hardAlpha"/>
<feOffset dy="4"/>
<feGaussianBlur stdDeviation="2"/>
<feComposite in2="hardAlpha" operator="out"/>
<feColorMatrix type="matrix" values="0 0 0 0 0 0 0 0 0 0 0 0 0 0 0 0 0 0 0.25 0"/>
<feBlend mode="normal" in2="BackgroundImageFix" result="effect1_dropShadow_207_112"/>
<feBlend mode="normal" in="SourceGraphic" in2="effect1_dropShadow_207_112" result="shape"/>
</filter>
</defs>
</svg>
